<svg width="39" height="43" className="icon" viewBox="0 0 39 43" fill="none" xmlns="http://www.w3.org/2000/svg">
<path fill-rule="evenodd" clip-rule="evenodd" d="M27.3823 6.52948C26.0644 6.52948 24.8026 7.05119 23.8739 7.9765C22.9455 8.90145 22.4259 10.1537 22.4259 11.4573H16.7185C16.7185 8.63327 17.8446 5.92704 19.8456 3.93336C21.8462 1.94004 24.5575 0.822083 27.3823 0.822083C30.2072 0.822083 32.9184 1.94004 34.9191 3.93336C36.9201 5.92704 38.0461 8.63327 38.0461 11.4573V24.1022H32.3387V11.4573C32.3387 10.1537 31.8191 8.90145 30.8908 7.9765C29.962 7.05119 28.7002 6.52948 27.3823 6.52948ZM19.5722 19.1744C18.2543 19.1744 16.9925 19.6961 16.0638 20.6214C15.1354 21.5464 14.6158 22.7987 14.6158 24.1022H8.90919H8.9084C8.9084 21.2782 10.0345 18.572 12.0355 16.5783C14.0361 14.585 16.7474 13.467 19.5722 13.467C22.3971 13.467 25.1083 14.585 27.109 16.5783C29.11 18.572 30.236 21.2782 30.236 24.1022H24.5286C24.5286 22.7987 24.009 21.5464 23.0806 20.6214C22.1519 19.6961 20.8901 19.1744 19.5722 19.1744ZM9.03181 25.7146C9.37419 27.941 10.4196 30.016 12.0357 31.6262C14.0363 33.6195 16.7476 34.7374 19.5724 34.7374C22.3973 34.7374 25.1085 33.6195 27.1092 31.6262C28.7253 30.016 29.7706 27.941 30.113 25.7146H24.256C24.0136 26.4107 23.6148 27.051 23.0808 27.583C22.1521 28.5083 20.8903 29.03 19.5724 29.03C18.2545 29.03 16.9927 28.5083 16.064 27.583C15.53 27.051 15.1312 26.4107 14.8888 25.7146H9.03181ZM38.0516 25.7146H32.3439L32.3438 37.1143L6.67065 37.1142L6.67067 11.4204L15.1068 11.4205C15.1128 9.41093 15.6137 7.45451 16.5409 5.71273L0.962921 5.71263L0.962891 42.822L38.0516 42.8221L38.0516 25.7146Z" fill="#667EEA"/>
</svg>
